#tb 0: 1/11025
#media_type 0: audio
#codec_id 0: pcm_s16le
#sample_rate 0: 11025
#channel_layout_name 0: mono
0,          0,          0,      500,     1000, 0x64cd9403
0,        500,        500,      500,     1000, 0xa4ef8a9d
0,       1000,       1000,      500,     1000, 0x75c19868
0,       1500,       1500,      500,     1000, 0x93db6f79
0,       2000,       2000,      500,     1000, 0x6835625d
0,       2500,       2500,      500,     1000, 0xb3affa8f
0,       3000,       3000,      500,     1000, 0x159fdcc8
0,       3500,       3500,      500,     1000, 0x79f9f7f1
0,       4000,       4000,      500,     1000, 0xd7d1131e
0,       4500,       4500,      500,     1000, 0x52a6f797
0,       5000,       5000,      500,     1000, 0x748202ca
0,       5500,       5500,      500,     1000, 0x0ef92449
0,       6000,       6000,      500,     1000, 0x6a3760ab
0,       6500,       6500,      500,     1000, 0xce5c5abf
0,       7000,       7000,      500,     1000, 0x23396792
0,       7500,       7500,      500,     1000, 0xa5276238
0,       8000,       8000,      500,     1000, 0x288adf1b
0,       8500,       8500,      500,     1000, 0xe7de6fb2
0,       9000,       9000,      500,     1000, 0x2c2c707f
0,       9500,       9500,      500,     1000, 0xd66d6daf
0,      10000,      10000,      500,     1000, 0xbcea7d64
0,      10500,      10500,      500,     1000, 0x766feea5
0,      11000,      11000,      500,     1000, 0xd2e1d63a
0,      11500,      11500,      500,     1000, 0x2f7ef4ed
0,      12000,      12000,      500,     1000, 0xb655cba4
0,      12500,      12500,      500,     1000, 0x4507d37b
0,      13000,      13000,      500,     1000, 0x0c57f794
0,      13500,      13500,      500,     1000, 0x0ecbe5cc
0,      14000,      14000,      500,     1000, 0x9bf6e345
0,      14500,      14500,      500,     1000, 0xc461443c
0,      15000,      15000,      500,     1000, 0xad9657bf
0,      15500,      15500,      500,     1000, 0x466fe91c
0,      16000,      16000,      500,     1000, 0x9ee377fe
0,      16500,      16500,      500,     1000, 0x09956428
0,      17000,      17000,      500,     1000, 0x9b285f0a
0,      17500,      17500,      500,     1000, 0x0a3e61a6
0,      18000,      18000,      500,     1000, 0xacc25d6b
0,      18500,      18500,      500,     1000, 0x377be319
0,      19000,      19000,      500,     1000, 0xe4890504
0,      19500,      19500,      500,     1000, 0xe90a6497
0,      20000,      20000,      500,     1000, 0xd00fe950
0,      20500,      20500,      500,     1000, 0xf195eb44
0,      21000,      21000,      500,     1000, 0xa491f3ef
0,      21500,      21500,      500,     1000, 0x2c036e18
0,      22000,      22000,       50,      100, 0x0bd81f05
